<?xml version="1.0" encoding="utf-8"?>
<!-- Generator: Adobe Illustrator 27.4.0, SVG Export Plug-In . SVG Version: 6.00 Build 0)  -->
<svg version="1.1" id="Lager_1" xmlns="http://www.w3.org/2000/svg" xmlns:xlink="http://www.w3.org/1999/xlink" x="0px" y="0px"
	 viewBox="0 0 128 128" style="enable-background:new 0 0 128 128;" xml:space="preserve">
<style type="text/css">
	.st0{fill:#FFFFFF;}
	.st1{fill:#6BBF00;}
</style>
<path class="st0" d="M56.76,23.08v2.78H55v27.06l-0.81,1.36l-7.31,12.18h3.32c-1.27,1.81-2.78,2.91-4.51,3.38
	c-2.12,0.53-4.36,0.15-6.76-1.19l-3.95-2.19c-2.36-1.34-3.91-3.04-4.55-5.12c-0.68-2.12-0.26-4.42,1.13-6.95l4.99-5.63l7.27,4.04
	l-4.53,4.87c-1,1.79-0.74,3.06,0.77,3.93l0.3,0.17c1.51,0.83,2.76,0.38,3.7-1.3l4.36-6.19v-31.2H56.76z"/>
<path class="st0" d="M89.96,25.32c-1.57-1.51-3.74-2.25-6.5-2.25H69.37v2.78h1.87v27.06l0.81,1.36l7.29,12.18H76l1.49,2.7h8.29
	l-8.1-14.88v-2.81h5.7c2.78,0,4.95-0.76,6.55-2.25c1.59-1.51,2.38-3.7,2.38-6.63V31.91C92.32,29.03,91.52,26.82,89.96,25.32z
	 M83.97,41.79c0,1.95-0.89,2.95-2.66,2.95h-3.63V29.78h3.63c1.78,0,2.66,1,2.66,3V41.79z"/>
<path class="st1" d="M73.99,63.46h-21.4c0.21-0.3,0.43-0.66,0.63-1.01l4.81-8.93v-7.76c0.67,0.34,1.43,0.54,2.24,0.54
	c2.76,0,4.99-2.24,4.99-5.01c0-2.76-2.24-4.99-4.99-4.99c-0.8,0-1.56,0.19-2.24,0.54l0.03-8.19c0.24-0.19,1.51-0.69,1.94-0.51
	c1.05,0.43,3.78,1.32,4.52,1.66c2.3-0.48,1.14-0.53,2.66-1.31c0.73,0.09,1.04,0.01,1.35,0.17c0,6.13-0.03,13.95-0.03,20.08
	c-0.46-0.15-0.94-0.21-1.45-0.21c-3.08,0-5.59,2.5-5.59,5.59c0,3.08,2.5,5.59,5.59,5.59c1.53,0,2.94-0.63,3.95-1.64L73.99,63.46z"/>
<path class="st1" d="M63.87,41.29c0,2-1.61,3.61-3.61,3.61c-0.83,0-1.61-0.28-2.24-0.77v-5.66c0.63-0.49,1.4-0.77,2.24-0.77
	C62.26,37.68,63.87,39.3,63.87,41.29z"/>
<path class="st1" d="M70.2,56.6c-0.73,0.94-1.88,1.53-3.16,1.53c-2.24,0-4.04-1.8-4.04-4.04c0-2.22,1.8-4.02,4.04-4.02
	c0.52,0,1,0.09,1.45,0.27v3.17L70.2,56.6z"/>
<g>
	<path class="st0" d="M4.27,92.05c-1.25,0-2.27-0.3-3.07-0.88C0.4,90.57,0,89.8,0,88.83c0-0.53,0.14-0.96,0.42-1.28
		c0.28-0.32,0.67-0.49,1.18-0.49c0.42,0,0.75,0.11,0.99,0.33c0.24,0.22,0.36,0.5,0.36,0.83c0,0.26-0.1,0.51-0.31,0.76
		c-0.21,0.25-0.49,0.42-0.83,0.51c0.07,0.47,0.3,0.84,0.68,1.11C2.86,90.87,3.38,91,4.03,91c0.74,0,1.3-0.21,1.67-0.62
		c0.37-0.41,0.56-0.99,0.56-1.73V75.64c0-0.21-0.15-0.32-0.45-0.32h-1.8V74.3h6.14v1.02H8.99c-0.3,0-0.45,0.11-0.45,0.32v12.71
		c0,1.18-0.38,2.09-1.15,2.73C6.63,91.73,5.59,92.05,4.27,92.05z"/>
	<path class="st0" d="M15.13,92c-1.18,0-2.11-0.31-2.78-0.92c-0.67-0.61-1.01-1.49-1.01-2.64v-5.6c0-1.1,0.33-1.96,1.01-2.58
		c0.67-0.62,1.61-0.93,2.81-0.93c1.16,0,2.06,0.29,2.71,0.86c0.65,0.57,0.97,1.38,0.97,2.43v2.76h-5.52v3.83
		c0,0.59,0.17,1.05,0.5,1.37c0.34,0.33,0.8,0.49,1.41,0.49c0.6,0,1.07-0.16,1.41-0.49c0.33-0.32,0.5-0.78,0.5-1.37v-1.79h1.7v1.47
		c0,0.91-0.31,1.65-0.94,2.23C17.28,91.71,16.36,92,15.13,92z M13.33,84.43h3.61V82.1c0-0.57-0.16-1.02-0.49-1.34
		c-0.32-0.32-0.76-0.48-1.32-0.48c-0.6,0-1.05,0.16-1.35,0.48c-0.3,0.32-0.45,0.76-0.45,1.34V84.43z"/>
	<path class="st0" d="M24.85,91.98c-0.67,0-1.21-0.08-1.61-0.25c-0.4-0.17-0.72-0.37-0.95-0.61c-0.07-0.01-0.13-0.01-0.17,0.02
		c-0.05,0.03-0.07,0.07-0.07,0.11v0.61h-1.25v-4.51h1.32l0.04,1.36c0.02,0.72,0.27,1.3,0.73,1.71c0.46,0.42,1.04,0.62,1.74,0.62
		c0.56,0,0.99-0.12,1.32-0.37c0.32-0.25,0.49-0.59,0.49-1.03c0-0.59-0.28-1.17-0.83-1.73c-0.56-0.57-1.18-1.16-1.87-1.78
		c-0.76-0.63-1.46-1.3-2.08-2.01c-0.62-0.7-0.94-1.46-0.94-2.28c0-0.77,0.3-1.38,0.9-1.82c0.6-0.45,1.38-0.67,2.32-0.67
		c0.58,0,1.06,0.09,1.44,0.26s0.69,0.37,0.92,0.6c0.16,0.06,0.24,0.01,0.24-0.14v-0.61h1.15v4.44h-1.18l-0.03-1.31
		c-0.02-0.71-0.25-1.27-0.68-1.68c-0.43-0.41-0.97-0.61-1.61-0.61c-0.53,0-0.95,0.12-1.25,0.36c-0.3,0.24-0.45,0.57-0.45,1
		c0,0.57,0.28,1.16,0.83,1.76c0.56,0.6,1.18,1.21,1.87,1.82c0.74,0.63,1.43,1.29,2.08,1.97c0.65,0.68,0.97,1.43,0.97,2.24
		c0,0.82-0.32,1.44-0.97,1.87C26.6,91.76,25.8,91.98,24.85,91.98z"/>
	<path class="st0" d="M33.7,91.98c-0.67,0-1.21-0.08-1.61-0.25c-0.4-0.17-0.72-0.37-0.95-0.61c-0.07-0.01-0.13-0.01-0.17,0.02
		c-0.05,0.03-0.07,0.07-0.07,0.11v0.61h-1.25v-4.51h1.32l0.04,1.36c0.02,0.72,0.27,1.3,0.73,1.71c0.46,0.42,1.04,0.62,1.74,0.62
		c0.56,0,0.99-0.12,1.32-0.37c0.32-0.25,0.49-0.59,0.49-1.03c0-0.59-0.28-1.17-0.83-1.73c-0.56-0.57-1.18-1.16-1.87-1.78
		c-0.76-0.63-1.46-1.3-2.08-2.01c-0.62-0.7-0.94-1.46-0.94-2.28c0-0.77,0.3-1.38,0.9-1.82c0.6-0.45,1.38-0.67,2.32-0.67
		c0.58,0,1.06,0.09,1.44,0.26s0.69,0.37,0.92,0.6c0.16,0.06,0.24,0.01,0.24-0.14v-0.61h1.15v4.44h-1.18l-0.03-1.31
		c-0.02-0.71-0.25-1.27-0.68-1.68c-0.43-0.41-0.97-0.61-1.61-0.61c-0.53,0-0.95,0.12-1.25,0.36c-0.3,0.24-0.45,0.57-0.45,1
		c0,0.57,0.28,1.16,0.83,1.76c0.56,0.6,1.18,1.21,1.87,1.82c0.74,0.63,1.43,1.29,2.08,1.97c0.65,0.68,0.97,1.43,0.97,2.24
		c0,0.82-0.32,1.44-0.97,1.87C35.45,91.76,34.65,91.98,33.7,91.98z"/>
	<path class="st0" d="M42.59,92c-1.18,0-2.11-0.31-2.78-0.92c-0.67-0.61-1.01-1.49-1.01-2.64v-5.6c0-1.1,0.33-1.96,1.01-2.58
		c0.67-0.62,1.61-0.93,2.81-0.93c1.16,0,2.06,0.29,2.71,0.86c0.65,0.57,0.97,1.38,0.97,2.43v2.76h-5.52v3.83
		c0,0.59,0.17,1.05,0.5,1.37c0.34,0.33,0.8,0.49,1.41,0.49c0.6,0,1.07-0.16,1.41-0.49c0.33-0.32,0.5-0.78,0.5-1.37v-1.79h1.7v1.47
		c0,0.91-0.31,1.65-0.94,2.23C44.74,91.71,43.81,92,42.59,92z M40.78,84.43h3.61V82.1c0-0.57-0.16-1.02-0.49-1.34
		c-0.32-0.32-0.76-0.48-1.32-0.48c-0.6,0-1.05,0.16-1.35,0.48c-0.3,0.32-0.45,0.76-0.45,1.34V84.43z"/>
	<path class="st0" d="M51.4,90.84h1.25c0.32,0,0.49-0.11,0.49-0.32V75.62c0-0.2-0.16-0.29-0.49-0.29H51.4V74.3h5.35
		c1.53,0,2.71,0.32,3.56,0.95c0.84,0.63,1.27,1.47,1.27,2.49v3.67c0,1.03-0.42,1.86-1.27,2.49c-0.84,0.63-2.03,0.95-3.56,0.95h-1.39
		v5.67c0,0.21,0.16,0.32,0.49,0.32h1.63v1.02H51.4V90.84z M56.68,83.84c1.71,0,2.57-0.66,2.57-1.97v-4.58
		c0-0.63-0.22-1.12-0.66-1.46c-0.44-0.34-1.05-0.51-1.84-0.51h-0.83c-0.37,0-0.56,0.13-0.56,0.38v8.14H56.68z"/>
	<path class="st0" d="M62.68,90.91h1.25c0.3,0,0.45-0.1,0.45-0.3v-9.88c0-0.21-0.15-0.32-0.45-0.32h-1.25v-0.95h3.58v11.15
		c0,0.2,0.15,0.3,0.45,0.3h1.18v0.95h-5.21V90.91z M65.25,77.68c-0.39,0-0.7-0.07-0.92-0.23C64.11,77.3,64,77.09,64,76.82
		c0-0.24,0.11-0.45,0.33-0.61c0.22-0.17,0.53-0.25,0.92-0.25c0.39,0,0.7,0.08,0.92,0.25c0.22,0.17,0.33,0.37,0.33,0.61
		c0,0.27-0.11,0.48-0.33,0.63C65.95,77.6,65.64,77.68,65.25,77.68z"/>
	<path class="st0" d="M68.44,90.91h1.25c0.3,0,0.45-0.1,0.45-0.3v-9.88c0-0.21-0.15-0.32-0.45-0.32h-1.25v-0.95h3.43v1.13
		c0.28-0.39,0.65-0.7,1.13-0.93c0.47-0.23,1.02-0.34,1.65-0.34c0.86,0,1.57,0.22,2.15,0.66c0.58,0.44,0.87,1.07,0.87,1.88v8.73
		c0,0.21,0.15,0.32,0.45,0.32h1.18v0.95h-5v-0.95h1.04c0.28,0,0.42-0.1,0.42-0.3v-8.54c0-0.53-0.16-0.95-0.49-1.27
		c-0.32-0.32-0.77-0.48-1.35-0.48c-0.6,0-1.07,0.15-1.41,0.46s-0.5,0.74-0.5,1.28v8.54c0,0.2,0.15,0.3,0.45,0.3h1.04v0.95h-5.07
		V90.91z"/>
	<path class="st0" d="M79.65,90.91h1.25c0.3,0,0.45-0.1,0.45-0.3V75.52c0-0.2-0.15-0.3-0.45-0.3h-1.25V74.3h3.57v11.67l3.58-5.12
		c0.21-0.29,0.06-0.43-0.45-0.43h-1.08v-0.95h4.75v0.95h-0.87c-0.35,0-0.6,0.12-0.76,0.36l-2.01,2.95l2.5,6.82
		c0.02,0.12,0.07,0.21,0.15,0.27c0.08,0.06,0.23,0.09,0.44,0.09h0.83v0.95h-4.72v-0.95h0.87c0.21,0,0.34-0.04,0.38-0.11
		c0.05-0.08,0.06-0.17,0.04-0.3l-1.77-5.21l-1.87,2.7v2.63c0,0.2,0.16,0.3,0.49,0.3h0.87v0.95h-4.93V90.91z"/>
	<path class="st0" d="M90.9,90.91h1.25c0.3,0,0.45-0.1,0.45-0.3v-9.88c0-0.21-0.15-0.32-0.45-0.32H90.9v-0.95h3.44v1.13
		c0.25-0.39,0.61-0.7,1.08-0.93c0.46-0.23,0.98-0.34,1.56-0.34c0.62,0,1.17,0.13,1.63,0.37c0.46,0.25,0.8,0.61,1.01,1.08
		c0.23-0.45,0.6-0.81,1.09-1.07c0.5-0.26,1.06-0.39,1.68-0.39c0.81,0,1.49,0.22,2.05,0.66c0.56,0.44,0.83,1.07,0.83,1.88v8.73
		c0,0.21,0.15,0.32,0.45,0.32h1.22v0.95h-4.89v-0.95h0.94c0.28,0,0.42-0.1,0.42-0.3v-8.54c0-0.54-0.16-0.97-0.47-1.28
		s-0.75-0.46-1.3-0.46s-0.98,0.15-1.28,0.46s-0.45,0.74-0.45,1.28v8.54c0,0.2,0.14,0.3,0.42,0.3h0.94v0.95h-4.58v-0.95h0.9
		c0.3,0,0.45-0.1,0.45-0.3v-8.54c0-0.54-0.16-0.97-0.49-1.28c-0.32-0.31-0.75-0.46-1.29-0.46c-0.56,0-0.99,0.15-1.3,0.46
		c-0.31,0.31-0.47,0.74-0.47,1.28v8.54c0,0.2,0.15,0.3,0.45,0.3h0.9v0.95H90.9V90.91z"/>
	<path class="st0" d="M110.72,91.98c-0.9,0-1.62-0.23-2.15-0.68c-0.53-0.45-0.8-1.09-0.8-1.9c0-0.83,0.27-1.56,0.82-2.19
		c0.54-0.63,1.2-1.19,1.96-1.69c0.76-0.5,1.39-1.01,1.87-1.52c0.49-0.51,0.73-1.1,0.73-1.77v-0.2c0-0.59-0.18-1.03-0.54-1.33
		c-0.36-0.29-0.82-0.44-1.37-0.44c-1.02,0-1.57,0.36-1.67,1.07c0.63,0.23,0.94,0.55,0.94,0.97c0,0.29-0.11,0.51-0.33,0.68
		c-0.22,0.17-0.5,0.25-0.85,0.25c-0.42,0-0.75-0.14-1.01-0.41c-0.25-0.27-0.38-0.63-0.38-1.09c0-0.71,0.34-1.29,1.01-1.73
		c0.67-0.45,1.53-0.67,2.57-0.67c1.04,0,1.89,0.24,2.55,0.71c0.66,0.48,0.99,1.12,0.99,1.94v8.11c0,0.54,0.44,0.82,1.32,0.82h0.31
		v0.95c-0.14,0-0.27,0-0.38,0.01c-0.12,0.01-0.23,0.01-0.35,0.01c-0.65,0-1.19-0.09-1.63-0.27c-0.44-0.18-0.72-0.45-0.83-0.79
		c-0.28,0.38-0.66,0.66-1.16,0.86C111.83,91.88,111.29,91.98,110.72,91.98z M111.34,91.05c0.53,0,0.96-0.14,1.3-0.41
		c0.34-0.27,0.5-0.64,0.5-1.11v-4.99c-0.21,0.3-0.46,0.58-0.75,0.83c-0.29,0.25-0.57,0.49-0.85,0.71c-0.51,0.41-0.95,0.85-1.34,1.31
		c-0.38,0.47-0.57,1.08-0.57,1.84C109.64,90.44,110.21,91.05,111.34,91.05z"/>
	<path class="st0" d="M117.14,90.91h1.25c0.3,0,0.45-0.1,0.45-0.3v-9.88c0-0.21-0.15-0.32-0.45-0.32h-1.25v-0.95h3.44v1.13
		c0.28-0.39,0.65-0.7,1.13-0.93c0.47-0.23,1.02-0.34,1.65-0.34c0.86,0,1.57,0.22,2.15,0.66c0.58,0.44,0.87,1.07,0.87,1.88v8.73
		c0,0.21,0.15,0.32,0.45,0.32H128v0.95h-5v-0.95h1.04c0.28,0,0.42-0.1,0.42-0.3v-8.54c0-0.53-0.16-0.95-0.49-1.27
		c-0.32-0.32-0.78-0.48-1.35-0.48c-0.6,0-1.07,0.15-1.41,0.46c-0.34,0.31-0.5,0.74-0.5,1.28v8.54c0,0.2,0.15,0.3,0.45,0.3h1.04v0.95
		h-5.07V90.91z"/>
</g>
</svg>
